<svg xmlns="http://www.w3.org/2000/svg" xmlns:svg="http://www.w3.org/2000/svg" id="svg27" width="19" height="19" version="1.1" viewBox="0 0 5.027 5.027"><metadata id="metadata24"/><g id="layer1" transform="translate(-23.965907,-59.219738)"><path style="opacity:1;fill:#3897f0;fill-opacity:1;fill-rule:nonzero;stroke:none;stroke-width:.12203249;stroke-linecap:square;stroke-linejoin:miter;stroke-miterlimit:4;stroke-dasharray:none;stroke-dashoffset:0;stroke-opacity:1;paint-order:fill markers stroke" id="path18" d="m 28.568538,62.638334 -0.684761,0.275039 -0.03592,0.737057 -0.730539,-0.104189 -0.399634,0.620352 -0.580571,-0.4555 -0.656269,0.337423 -0.275039,-0.68476 -0.737058,-0.03592 0.104189,-0.73054 -0.620351,-0.399634 0.4555,-0.580571 -0.337423,-0.656269 0.68476,-0.275039 0.03592,-0.737057 0.730539,0.104189 0.399634,-0.620352 0.580571,0.4555 0.656269,-0.337423 0.27504,0.68476 0.737057,0.03592 -0.104189,0.730539 0.620351,0.399634 -0.4555,0.580571 z" transform="matrix(1.0791873,-0.10276428,0.10276428,1.0791873,-8.2751197,-2.2553274)"/><path style="opacity:1;fill:none;fill-opacity:.39108911;fill-rule:nonzero;stroke:#fff;stroke-width:.39687502;stroke-linecap:round;stroke-linejoin:round;stroke-miterlimit:4;stroke-dasharray:none;stroke-dashoffset:0;stroke-opacity:1;paint-order:fill markers stroke" id="path828" d="m 25.553486,61.815469 0.639094,0.639094 1.217321,-1.217323"/></g></svg>